<?xml version="1.0" encoding="utf-8"?>
<!-- Generator: Adobe Illustrator 16.0.0, SVG Export Plug-In . SVG Version: 6.00 Build 0)  -->
<!DOCTYPE svg PUBLIC "-//W3C//DTD SVG 1.1//EN" "http://www.w3.org/Graphics/SVG/1.1/DTD/svg11.dtd">
<svg version="1.1" id="Modo_de_isolamento" xmlns="http://www.w3.org/2000/svg" xmlns:xlink="http://www.w3.org/1999/xlink" x="0px"
	 y="0px" width="61px" height="37px" viewBox="0 0 61 37" enable-background="new 0 0 61 37" xml:space="preserve">
<g>
	<path fill="#FAF7E2" d="M58.4,16.4L42.8,19.2c-0.6,0-1-0.5-0.899-1.1L46.6,3.7C46.9,2.6,48.1,2,48.7,2.7L59.6,14.3
		C60.2,15.2,59.8,16.3,58.4,16.4z"/>
	<path d="M42.8,20.05c-0.528,0-1.021-0.223-1.35-0.612c-0.338-0.398-0.479-0.937-0.388-1.478c0.007-0.042,0.017-0.083,0.03-0.123
		l4.699-14.4c0.293-1.077,1.247-1.887,2.256-1.887c0.506,0,0.967,0.212,1.298,0.598l10.873,11.571
		c0.032,0.034,0.062,0.071,0.088,0.11c0.463,0.694,0.542,1.512,0.211,2.188c-0.351,0.714-1.1,1.163-2.057,1.231l-15.511,2.79
		C42.9,20.046,42.851,20.05,42.8,20.05z M42.74,18.266l0.005,0.08l15.505-2.783c0.422-0.035,0.665-0.142,0.74-0.295
		c0.057-0.115,0.031-0.278-0.066-0.446L48.081,3.282c-0.188-0.029-0.54,0.2-0.661,0.642L42.74,18.266z"/>
</g>
<g>
	<path fill="#FAF7E2" d="M2.6,17.2L18.2,20c0.6,0,1-0.5,1-1.1L14.4,4.5c-0.3-1.1-1.4-1.7-2.1-1L1.4,15.2C0.8,15.9,1.2,17,2.6,17.2z"
		/>
	<path d="M18.2,20.85c-0.05,0-0.101-0.004-0.15-0.013l-15.601-2.8c-0.978-0.139-1.755-0.69-2.048-1.468
		c-0.248-0.657-0.115-1.375,0.353-1.921L11.678,2.92c0.375-0.376,0.836-0.571,1.318-0.571c1,0,1.915,0.792,2.224,1.927l4.786,14.354
		c0.029,0.087,0.044,0.178,0.044,0.269C20.05,19.993,19.238,20.85,18.2,20.85z M12.996,4.049c-0.015,0-0.043,0-0.095,0.052
		L2.022,15.78c-0.06,0.071-0.046,0.144-0.029,0.19c0.052,0.139,0.274,0.324,0.728,0.389l15.52,2.785
		c0.058-0.021,0.085-0.085,0.098-0.142L13.594,4.769C13.452,4.253,13.131,4.049,12.996,4.049z"/>
</g>
<g>
	<path fill="#FAF7E2" d="M52.5,29.5c0,3.5-3.3,6.4-7.2,6.3l-28.8-0.1c-4,0-7.2-2.9-7.2-6.4L9.4,7.5c0-3.5,3.3-6.4,7.2-6.3l28.8,0.1
		c4,0,7.199,2.9,7.199,6.4L52.5,29.5z"/>
	<path d="M45.497,36.652l-0.219-0.003l-28.781-0.1c-4.436,0-8.047-3.252-8.047-7.25l0.1-21.804c0-3.873,3.597-7.148,7.854-7.148
		l0.218,0.003L45.403,0.45c4.436,0,8.046,3.252,8.046,7.25l-0.1,21.804C53.35,33.377,49.754,36.652,45.497,36.652z M16.404,2.048
		c-3.336,0-6.154,2.497-6.154,5.452l-0.1,21.804c0,3.057,2.849,5.547,6.35,5.547l28.997,0.102c3.335,0,6.153-2.497,6.153-5.452
		l0.1-21.804c0-3.057-2.849-5.546-6.35-5.546L16.404,2.048z"/>
</g>
<g>
	<circle cx="40.3" cy="15.5" r="1.8"/>
</g>
<g>
	<path fill="#C0BDA5" d="M38.4,22.2c-0.5-2.3-3.801-4.1-7.601-4.1s-6.9,1.7-7.6,4c-0.2,0.601,0.4,0.5,0.4,0.5H38
		C38,22.6,38.5,22.7,38.4,22.2z"/>
</g>
<g>
	<path d="M35.6,22.8l-4.1,2.9c-0.4,0.3-1,0.3-1.4,0L26,22.8c-0.8-0.5-0.3-1.6,0.7-1.6H35C35.9,21.2,36.4,22.3,35.6,22.8z"/>
</g>
<g opacity="0.1" enable-background="new    ">
	<path d="M45.5,1.3L31.2,1.2v34.6L45.3,35.9c4,0,7.2-2.801,7.2-6.301l0.1-21.8C52.6,4.1,49.4,1.3,45.5,1.3z"/>
</g>
<g>
	<path fill="#C0BDA5" d="M30.9,32.5c-0.9-0.2-1.8-0.2-2.6,0c1.3-0.6,2.5-1.6,3.2-2.9c0.2,1.5,0.8,2.801,1.8,3.9
		C32.6,33,31.8,32.7,30.9,32.5z"/>
</g>
<g>
	<path fill="#C0BDA5" d="M18.1,11.1c-0.13,0-0.259-0.05-0.357-0.15c-0.193-0.197-0.189-0.514,0.008-0.707l4.6-4.5
		c0.198-0.193,0.514-0.189,0.707,0.008c0.193,0.197,0.189,0.514-0.008,0.707l-4.6,4.5C18.353,11.053,18.226,11.1,18.1,11.1z"/>
</g>
<g>
	<path fill="#C0BDA5" d="M42.9,11.1c-0.128,0-0.256-0.049-0.354-0.146l-4.5-4.5c-0.195-0.195-0.195-0.512,0-0.707
		s0.512-0.195,0.707,0l4.5,4.5c0.195,0.195,0.195,0.512,0,0.707C43.156,11.051,43.028,11.1,42.9,11.1z"/>
</g>
<g>
	<path fill="#C4ACA5" d="M26.498,17.616c-1.218,2.876-4.435,4.25-7.181,3.072c-2.746-1.178-3.983-4.467-2.766-7.344
		c1.216-2.874,4.435-4.247,7.178-3.071C26.48,11.451,27.715,14.738,26.498,17.616z"/>
</g>
<g>
	<circle cx="21.4" cy="15.5" r="1.8"/>
</g>
</svg>
