<?xml version="1.0" encoding="utf-8"?>
<!-- Generator: Adobe Illustrator 16.0.0, SVG Export Plug-In . SVG Version: 6.00 Build 0)  -->
<!DOCTYPE svg PUBLIC "-//W3C//DTD SVG 1.1//EN" "http://www.w3.org/Graphics/SVG/1.1/DTD/svg11.dtd">
<svg version="1.1" id="Modo_de_isolamento" xmlns="http://www.w3.org/2000/svg" xmlns:xlink="http://www.w3.org/1999/xlink" x="0px"
	 y="0px" width="64px" height="45px" viewBox="0 0 64 45" enable-background="new 0 0 64 45" xml:space="preserve">
<g>
	<polygon fill="#C0BDA8" points="21.4,7.1 15,7.4 17.9,1.7 	"/>
	<path d="M15,8.25c-0.288,0-0.557-0.146-0.714-0.389c-0.165-0.254-0.181-0.577-0.044-0.846l2.9-5.7
		c0.138-0.271,0.41-0.448,0.713-0.463c0.311-0.021,0.593,0.131,0.758,0.386l3.5,5.4c0.166,0.255,0.182,0.58,0.043,0.851
		c-0.139,0.271-0.413,0.447-0.717,0.461l-6.4,0.3C15.026,8.25,15.013,8.25,15,8.25z M17.989,3.4L16.42,6.482l3.461-0.162L17.989,3.4
		z"/>
</g>
<g>
	<path fill="#FAF7E2" d="M53.4,35.5c0,3.5-3.2,6.4-7.101,6.3l-28.1-0.1c-3.9,0-7-2.9-7-6.4l0.1-21.8c0-3.5,3.2-6.4,7.1-6.3l28.1,0.1
		c3.9,0,7,2.9,7,6.4L53.4,35.5z"/>
	<path d="M46.497,42.652l-0.219-0.003l-28.081-0.1c-4.326,0-7.847-3.252-7.847-7.25l0.1-21.804c0-3.94,3.479-7.148,7.754-7.148
		l0.218,0.003L46.503,6.45c4.325,0,7.847,3.252,7.847,7.25l-0.1,21.804C54.25,39.443,50.772,42.652,46.497,42.652z M18.204,8.048
		c-3.338,0-6.054,2.446-6.054,5.452l-0.1,21.804c0,3.057,2.759,5.547,6.15,5.547l28.297,0.102c3.338,0,6.054-2.445,6.054-5.452
		l0.1-21.804c0-3.057-2.759-5.546-6.15-5.546L18.204,8.048z"/>
</g>
<g>
	<polygon fill="#C0BDA8" points="42.5,7.2 48.8,7.6 46,1.9 	"/>
	<path d="M48.8,8.45c-0.018,0-0.036,0-0.054-0.002l-6.3-0.4c-0.303-0.019-0.572-0.198-0.707-0.469
		c-0.136-0.271-0.115-0.594,0.052-0.847l3.5-5.3c0.167-0.254,0.457-0.405,0.763-0.38c0.305,0.019,0.575,0.2,0.709,0.474l2.8,5.7
		c0.134,0.272,0.112,0.595-0.056,0.847C49.349,8.309,49.083,8.45,48.8,8.45z M44.018,6.445l3.373,0.214l-1.499-3.052L44.018,6.445z"
		/>
</g>
<circle cx="41.7" cy="18" r="1.8"/>
<path fill="#C0BDA5" d="M39.8,24.7c-0.5-2.3-3.8-4.1-7.6-4.1c-3.8,0-6.9,1.7-7.6,4C24.4,25.2,25,25.1,25,25.1L39.4,25.2
	C39.3,25.1,39.9,25.2,39.8,24.7z"/>
<path d="M37,25.3l-4.1,2.9c-0.4,0.3-1,0.3-1.4,0l-4.1-2.9c-0.8-0.5-0.3-1.6,0.7-1.6h8.3C37.3,23.7,37.8,24.7,37,25.3z"/>
<g>
	<path fill="#FAF7E2" d="M19.1,27.6c0,0,0.7,4.5,6.4,5s6.8-2.1,6.8-2.1"/>
	<path fill="#1E120D" d="M26.891,33.163c-0.445,0-0.923-0.021-1.435-0.065c-6.021-0.528-6.843-5.372-6.851-5.421
		c-0.042-0.272,0.144-0.526,0.416-0.57c0.273-0.042,0.528,0.143,0.572,0.415c0.027,0.168,0.73,4.122,5.95,4.58
		c5.205,0.45,6.289-1.78,6.299-1.803c0.114-0.25,0.407-0.362,0.658-0.253c0.25,0.11,0.367,0.397,0.261,0.648
		C32.714,30.805,31.656,33.163,26.891,33.163z"/>
</g>
<g>
	<path fill="#FAF7E2" d="M45.9,27.6c0,0-0.7,4.5-6.4,5s-6.8-2.1-6.8-2.1"/>
	<path fill="#1E120D" d="M38.109,33.163c-4.767,0-5.823-2.358-5.87-2.469c-0.107-0.254,0.011-0.547,0.266-0.655
		c0.252-0.104,0.547,0.011,0.655,0.267c0.008,0.016,1.101,2.251,6.295,1.796c5.25-0.461,5.944-4.538,5.95-4.579
		c0.042-0.273,0.301-0.456,0.571-0.417c0.272,0.043,0.459,0.298,0.417,0.571c-0.008,0.049-0.83,4.893-6.851,5.421
		C39.032,33.143,38.554,33.163,38.109,33.163z"/>
</g>
<path opacity="0.1" enable-background="new    " d="M46.167,7.3l-13.9-0.1v34.6L46.067,41.9c3.899,0,7-2.801,7.1-6.301l0.1-21.8
	C53.167,10.1,50.067,7.3,46.167,7.3z"/>
<g>
	<path fill="#FAF7E2" d="M61.7,10.2l-13.4,8.3c-0.5,0.2-1.1-0.1-1.3-0.6L46,2.7c-0.1-1.2,0.7-2.1,1.6-1.7L62,7.9
		C62.9,8.3,62.9,9.5,61.7,10.2z"/>
	<path d="M47.971,19.413c-0.766,0-1.474-0.481-1.76-1.197c-0.033-0.083-0.054-0.171-0.06-0.26l-1-15.2
		c-0.065-0.797,0.17-1.561,0.647-2.08c0.559-0.606,1.396-0.785,2.146-0.453l14.422,6.91c0.655,0.291,1.083,0.895,1.122,1.605
		c0.047,0.851-0.462,1.671-1.36,2.196l-13.382,8.288c-0.042,0.026-0.086,0.048-0.131,0.066
		C48.411,19.371,48.193,19.413,47.971,19.413z M47.835,17.649c0.037,0.034,0.085,0.058,0.123,0.063l13.295-8.234
		c0.443-0.259,0.545-0.526,0.539-0.645c-0.002-0.029-0.006-0.098-0.137-0.156l-14.423-6.91c-0.109-0.011-0.158,0.033-0.183,0.061
		c-0.119,0.129-0.235,0.408-0.203,0.803L47.835,17.649z"/>
</g>
<path d="M24.7,32.4c0.3,3.399,3.7,6,7.8,6c4.1,0,7.5-2.601,7.8-6c0,0-1,0.8-4,0c-3-0.801-3.8-2-3.8-2s-1.7,1.8-4.2,2.1
	S24.7,32.4,24.7,32.4z"/>
<path fill="#DE0209" d="M35,41.4c0,1.5-1.6,2.6-3.5,2.6l0,0c-1.9,0-3.5-1.2-3.5-2.7V36c0-1.5,1.6-2.6,3.5-2.6l0,0
	c1.9,0,3.5,1.199,3.5,2.699V41.4z"/>
<path fill="#C4ACA5" d="M27.865,20.115c-1.218,2.877-4.435,4.25-7.181,3.073c-2.746-1.178-3.983-4.467-2.766-7.344
	c1.216-2.874,4.435-4.247,7.178-3.071C27.847,13.951,29.082,17.238,27.865,20.115z"/>
<g>
	<path fill="#FAF7E2" d="M2.3,10.4l13.4,8.4c0.5,0.2,1.1-0.1,1.3-0.6l1-15.1c0.1-1.2-0.7-2.1-1.6-1.7L2,8.1
		C1.1,8.5,1.1,9.7,2.3,10.4z"/>
	<path d="M16.03,19.712L16.03,19.712c-0.224,0-0.44-0.042-0.646-0.124c-0.047-0.019-0.092-0.042-0.136-0.069l-13.4-8.4
		C0.973,10.61,0.465,9.79,0.511,8.939C0.55,8.228,0.978,7.624,1.655,7.323l14.387-6.694c0.788-0.352,1.603-0.159,2.161,0.447
		c0.478,0.519,0.712,1.283,0.645,2.095l-0.999,15.085c-0.006,0.089-0.026,0.177-0.059,0.26
		C17.502,19.232,16.795,19.712,16.03,19.712z M16.832,2.154L2.358,8.871C2.214,8.935,2.21,9.003,2.209,9.032
		C2.202,9.151,2.304,9.418,2.728,9.666l13.315,8.346c0.038-0.005,0.085-0.028,0.121-0.063l0.987-14.905
		c0.034-0.408-0.082-0.688-0.201-0.817C16.926,2.2,16.876,2.154,16.832,2.154z"/>
</g>
<circle cx="22.8" cy="18" r="1.8"/>
</svg>
